<svg xmlns="http://www.w3.org/2000/svg" width="29.92" height="39.769" viewBox="0 0 29.92 39.769">
  <g id="file-arrow-up-regular" transform="translate(-44.2 336.175)">
    <path id="Path_22" data-name="Path 22" d="M48.4-335.742a5.108,5.108,0,0,0-3.515,2.749l-.383.725v32.142l.383.752A5.245,5.245,0,0,0,47.14-297.1l.78.4H70.351l.752-.4a5.365,5.365,0,0,0,2.353-2.517l.315-.78.041-11.257c.027-7.249-.014-11.544-.109-12.023a5.5,5.5,0,0,0-.424-1.34,128.552,128.552,0,0,0-10.313-10.3,6.306,6.306,0,0,0-1.272-.424C60.831-335.919,49.342-335.919,48.4-335.742Zm10.586,2.257c.191.068.219.616.219,4.705a35.519,35.519,0,0,0,.164,5.074,4.055,4.055,0,0,0,1.409,1.9c.985.616,1.641.684,6.333.684h4.418l-.041,10.313-.041,10.313-.424.533a3.95,3.95,0,0,1-.889.793c-.451.274-.711.274-11,.274H48.6l-.588-.342a2.675,2.675,0,0,1-.93-.9l-.328-.561v-15.428c0-15.374,0-15.442.287-16.03a2.159,2.159,0,0,1,1.655-1.258C49.369-333.553,58.656-333.608,58.985-333.485Zm7.564,4.732c2.5,2.5,4.6,4.664,4.637,4.8a.343.343,0,0,1-.1.383,43.9,43.9,0,0,1-4.473.1l-4.295-.041-.4-.451-.4-.438v-4.445c0-4.076.014-4.445.233-4.445C61.884-333.293,64.045-331.255,66.548-328.752Z" fill="#1a1919" stroke="#dbe3eb" stroke-width="0.6"/>
    <path id="Path_23" data-name="Path 23" d="M101.378-205.608c-3.023,3.036-3.378,3.433-3.378,3.83a1.139,1.139,0,0,0,1.176,1.122c.479,0,.657-.15,2.585-2.052a19.955,19.955,0,0,1,2.229-2.052c.123,0,.164,1.149.164,4.828,0,4.678.014,4.842.274,5.129a1.36,1.36,0,0,0,1.723.014c.246-.274.26-.588.3-5.033.014-2.6.068-4.815.109-4.924.041-.137.78.506,2.229,1.942,1.97,1.956,2.188,2.147,2.64,2.147a1.222,1.222,0,0,0,1.2-1.135c0-.369-.438-.862-3.392-3.816-3.3-3.31-3.392-3.392-3.925-3.392S104.675-208.918,101.378-205.608Z" transform="translate(-46.182 -109.522)" fill="#1a1919" stroke="#dbe3eb" stroke-width="0.6"/>
  </g>
</svg>
