<?xml version="1.0" encoding="utf-8"?>
<!-- Generator: Adobe Illustrator 24.0.1, SVG Export Plug-In . SVG Version: 6.00 Build 0)  -->
<svg version="1.1" id="Layer_1" xmlns="http://www.w3.org/2000/svg" xmlns:xlink="http://www.w3.org/1999/xlink" x="0px" y="0px"
	 viewBox="0 0 598.9 120.2" style="enable-background:new 0 0 598.9 120.2;" xml:space="preserve">
<style type="text/css">
	.st0{fill:#0091D0;}
</style>
<path class="st0" d="M191.8,52.7c-5.6,0-8.2,0.7-8.2,4.6c0,4,2.8,4.7,8.2,4.7c5.3,0,8.2-0.6,8.2-4.6C199.9,53.4,197,52.7,191.8,52.7
	 M190.5,66.5c-9.3,0-13.2-2.7-13.2-9.2c0-6.5,3.9-9.2,13.2-9.2h2.5c9.3,0,13.1,2.7,13.2,9.2c-0.1,6.6-3.9,9.2-13.2,9.2H190.5z"/>
<polygon class="st0" points="278.5,36.3 270.2,44.4 276.6,44.4 280.3,40.7 316.4,40.7 296.1,78.6 268.8,70.5 268.8,75.2 298.3,84 
	323.9,36.3 "/>
<path class="st0" d="M115.8,66.6V56.2c0-2.1-1.8-3.5-4.8-3.5h-7.9l0,13.9h-6.2V43.1h6.2v5l10.8,0c5,0,8.2,2.5,8.2,6.5v12H115.8z"/>
<path class="st0" d="M229.3,66.5V56.2c0-2.1-1.8-3.5-4.8-3.5h-7.9l0,13.8h-6.2V48.1l17,0c5,0,8.2,2.5,8.2,6.5c0,3.4,0,12,0,12H229.3
	z"/>
<path class="st0" d="M64.4,56.2h15c5,0,6.3-0.8,6.3-3.8V52c0-3-1.4-3.8-6.4-3.8H64.4V56.2z M57.3,66.6V43.1h23.3
	c8.8,0,12.1,2.5,12.1,9v0.6c0,6.2-3.5,8.7-12.1,8.7H64.4v5.2H57.3z"/>
<path class="st0" d="M168.6,66.5c-6.9,0-9.2-1.9-9.2-7.5v-16h6.1v5h8.6v4.2h-8.6v5.8c0,3.9,1.7,4.4,5.5,4.4h3.1v4.1H168.6z"/>
<path class="st0" d="M140.8,52.7c-5.6,0-8.2,0.7-8.2,4.6c0,4,2.8,4.7,8.2,4.7c5.3,0,8.2-0.6,8.2-4.6C148.9,53.4,146,52.7,140.8,52.7
	 M139.5,66.5c-9.3,0-13.2-2.7-13.2-9.2c0-6.5,3.9-9.2,13.2-9.2h2.5c9.3,0,13.1,2.7,13.2,9.2c-0.1,6.6-3.9,9.2-13.2,9.2H139.5z"/>
<path class="st0" d="M286.8,52.7c-5.6,0-8.2,0.7-8.2,4.6c0,4,2.8,4.7,8.2,4.7c5.3,0,8.2-0.6,8.2-4.6C295,53.4,292.1,52.7,286.8,52.7
	 M285.6,66.5c-9.3,0-13.2-2.7-13.2-9.2c0-6.5,3.9-9.2,13.2-9.2h2.5c9.3,0,13.1,2.7,13.2,9.2c-0.1,6.6-3.9,9.2-13.2,9.2H285.6z"/>
<path class="st0" d="M253,48.1c-9.3,0-13.2,2.7-13.2,9.2c0,6.6,3.9,9.2,13.2,9.2h15.2v-4.6h-14.3c-5.1,0-7.8-0.8-7.8-4.7
	c0-3.8,2.4-4.5,7.8-4.6h7.9l-6.4,6.3h6.4l6.4-6.3h0v-4.6H253z"/>
<polygon class="st0" points="382.7,62.6 382.7,51 395.2,51 395.2,51.9 383.8,51.9 383.8,56.3 395.2,56.3 395.2,57.3 383.8,57.3 
	383.8,62.6 "/>
<path class="st0" d="M407.3,58.5V58c0-2.6-1.4-3.4-4.6-3.4c-3.2,0-4.6,0.8-4.6,3.4v0.5c0,2.6,1.4,3.4,4.6,3.4
	C405.9,61.9,407.3,61.1,407.3,58.5 M402.3,62.8c-3.4,0-5.2-1.3-5.2-4.1v-0.9c0-2.8,1.8-4.1,5.2-4.1h0.9c3.4,0,5.2,1.3,5.2,4.1v0.9
	c0,2.8-1.8,4.1-5.2,4.1H402.3z"/>
<path class="st0" d="M415.4,62.8c-3.4,0-5.2-1.3-5.2-4.1v-0.9c0-2.8,1.8-4.1,5.2-4.1h0.6c2.6,0,4.4,0.8,5,2.6h-1.1
	c-0.6-1.4-2.2-1.7-4.2-1.7c-3,0-4.5,0.8-4.5,3.4v0.5c0,2.6,1.4,3.4,4.5,3.4c2,0,3.6-0.3,4.2-1.7h1.1c-0.5,1.8-2.4,2.6-5,2.6H415.4z"
	/>
<path class="st0" d="M424,53.8v5.3c0,2.2,1.8,2.7,3.5,2.7c2.4,0,4.1-0.8,4.1-3.2v-4.9h1v8.8h-1v-1.7h-0.1c-0.5,1-1.6,1.9-4.2,1.9
	c-2.4,0-4.3-0.8-4.3-3.4v-5.5H424z"/>
<path class="st0" d="M440.2,62.8c-2.7,0-4.9-0.5-5.3-2.3h1.1c0.4,1.3,2.5,1.5,4.3,1.5c2.8,0,4.2-0.4,4.2-1.9V60
	c0-1.1-0.8-1.3-2.8-1.4l-3.1-0.1c-2.5-0.1-3.4-0.7-3.4-2.1v-0.2c0-1.9,1.9-2.5,4.7-2.5h0.2c2.8,0,4.7,0.6,5.1,2.3h-1.1
	c-0.3-1-1.6-1.5-4.1-1.5c-2.5,0-3.7,0.3-3.7,1.7v0.1c0,1.1,0.8,1.3,2.8,1.4l3.1,0.1c2.4,0.1,3.3,0.7,3.3,2.1v0.2
	c0,2.2-2.2,2.7-5.2,2.7H440.2z"/>
<path class="st0" d="M448.4,57.6h8.8v-0.1c0-2.2-1.4-3.1-4.4-3.1C450,54.5,448.5,55.2,448.4,57.6 M453.1,62.8h-0.6
	c-3.4,0-5.2-1.3-5.2-4.1v-0.9c0-2.8,1.8-4.1,5.2-4.1h0.6c3.4,0,5.2,1.3,5.2,4.1v0.6h-9.9v0.1c0,2.6,1.4,3.4,4.4,3.4
	c2.2,0,3.6-0.3,4.2-1.7h1.1C457.6,62,455.8,62.8,453.1,62.8"/>
<path class="st0" d="M470.3,58.8V58c0-2.6-1.4-3.4-4.6-3.4c-3.2,0-4.6,0.8-4.6,3.4v0.5c0,2.6,1.4,3.4,4.6,3.4
	C468.9,61.9,470.3,61.1,470.3,58.8 M470.3,62.6v-1.7h-0.1c-0.6,1.2-2,1.9-4.4,1.9h-0.7c-3.3,0-5.1-1.3-5.1-4.1v-0.9
	c0-2.8,1.8-4.1,5.1-4.1h0.7c2.5,0,3.8,0.6,4.4,1.9h0.1V51h1v11.6H470.3z"/>
<path class="st0" d="M489.4,58.5V58c0-2.6-1.4-3.4-4.6-3.4c-3.2,0-4.6,0.8-4.6,3.4v0.5c0,2.6,1.4,3.4,4.6,3.4
	C487.9,61.9,489.4,61.1,489.4,58.5 M484.3,62.8c-3.4,0-5.2-1.3-5.2-4.1v-0.9c0-2.8,1.8-4.1,5.2-4.1h0.9c3.4,0,5.2,1.3,5.2,4.1v0.9
	c0,2.8-1.8,4.1-5.2,4.1H484.3z"/>
<path class="st0" d="M501.3,62.6v-5.3c0-2.2-1.8-2.7-3.5-2.7c-2.4,0-4.1,0.8-4.1,3.2v4.9h-1v-8.8h1v1.7h0.1c0.5-1,1.6-1.9,4.2-1.9
	c2.4,0,4.3,0.8,4.3,3.4v5.5H501.3z"/>
<path class="st0" d="M516.9,62.8c-4.4,0-6.3-1-6.7-3.5h1.1c0.4,1.9,1.9,2.6,6,2.6c4.1,0,5.6-0.7,5.6-2.5v-0.4c0-1.3-1-1.9-3-1.9
	h-6.3v-0.9h6.5c1.7,0,2.5-0.5,2.5-1.8V54c0-1.6-1.4-2.2-5.4-2.2c-3.4,0-4.8,0.7-5.3,2.6h-1.1c0.6-2.5,2.3-3.5,6.2-3.5h0.4
	c4.6,0,6.4,0.8,6.4,3v0.3c0,1.2-0.5,2-1.7,2.3v0.1c1.4,0.3,2,1,2,2.4v0.3c0,2.5-1.8,3.5-6.5,3.5H516.9z"/>
<path class="st0" d="M527.9,61.7h6.4c5,0,6.1-1.5,6.1-4.6v-0.6c0-3.1-1.1-4.6-6.1-4.6h-6.4V61.7z M534.9,62.6h-8.1V51h8.1
	c4.8,0,6.6,1.7,6.6,5.1v1.3C541.5,60.9,539.7,62.6,534.9,62.6"/>
<g>
	<polyline class="st0" points="352.8,36.3 352.8,83.9 353.9,83.9 353.9,36.3 	"/>
</g>
</svg>
