<svg id="Photoneo_logo_horizontal_color" xmlns="http://www.w3.org/2000/svg" width="422.062" height="38.071" viewBox="0 0 422.062 38.071">
  <defs>
    <style>
      .cls-1 {
        fill: #0091d0;
      }
    </style>
  </defs>
  <path id="Path_1" data-name="Path 1" class="cls-1" d="M119.561,32.678c-4.881,0-7.148.559-7.148,3.671,0,3.193,2.441,3.751,7.148,3.751,4.62,0,7.148-.479,7.148-3.671-.087-3.193-2.615-3.751-7.148-3.751m-1.133,11.014c-8.106,0-11.506-2.155-11.506-7.343s3.4-7.343,11.506-7.343h2.179c8.106,0,11.419,2.155,11.506,7.343-.087,5.268-3.4,7.343-11.506,7.343Z" transform="translate(-2.322 -19.589)"/>
  <path id="Path_2" data-name="Path 2" class="cls-1" d="M170.557,21.891l-7.235,6.465H168.9l3.225-2.953h31.467L185.9,55.652l-23.8-6.465v3.751l25.714,7.024,22.315-38.071Z" transform="translate(22.256 -21.891)"/>
  <path id="Path_3" data-name="Path 3" class="cls-1" d="M74.911,44.748v-8.3c0-1.676-1.569-2.793-4.184-2.793H63.841V44.748h-5.4V25.992h5.4v3.991h9.414c4.358,0,7.148,2,7.148,5.188v9.578Z" transform="translate(-23.918 -20.564)"/>
  <path id="Path_4" data-name="Path 4" class="cls-1" d="M143.358,43.693V35.472c0-1.676-1.569-2.793-4.184-2.793h-6.886V43.693h-5.4V29.007H141.7c4.358,0,7.148,2,7.148,5.188v9.578h-5.491Z" transform="translate(6.569 -19.589)"/>
  <path id="Path_5" data-name="Path 5" class="cls-1" d="M40.744,36.447H53.819c4.358,0,5.492-.639,5.492-3.033V33.1c0-2.394-1.22-3.033-5.579-3.033H40.744Zm-6.189,8.3V25.992h20.31c7.671,0,10.547,2,10.547,7.183v.479c0,4.948-3.051,6.944-10.547,6.944H40.744v4.15Z" transform="translate(-34.555 -20.564)"/>
  <path id="Path_6" data-name="Path 6" class="cls-1" d="M104.147,44.688c-6.015,0-8.019-1.516-8.019-5.986V25.931h5.317v3.991h7.5v3.352h-7.5V37.9c0,3.113,1.482,3.512,4.794,3.512h2.7v3.272Z" transform="translate(-7.13 -20.584)"/>
  <path id="Path_7" data-name="Path 7" class="cls-1" d="M88.805,32.678c-4.881,0-7.148.559-7.148,3.671,0,3.193,2.441,3.751,7.148,3.751,4.62,0,7.148-.479,7.148-3.671-.087-3.193-2.615-3.751-7.148-3.751M87.672,43.693c-8.107,0-11.506-2.155-11.506-7.343s3.4-7.343,11.506-7.343h2.179c8.107,0,11.419,2.155,11.506,7.343-.087,5.268-3.4,7.343-11.506,7.343Z" transform="translate(-16.021 -19.589)"/>
  <path id="Path_8" data-name="Path 8" class="cls-1" d="M176.825,32.678c-4.881,0-7.148.559-7.148,3.671,0,3.193,2.441,3.751,7.148,3.751,4.62,0,7.148-.479,7.148-3.671s-2.528-3.751-7.148-3.751m-1.046,11.014c-8.106,0-11.506-2.155-11.506-7.343s3.4-7.343,11.506-7.343h2.179c8.107,0,11.419,2.155,11.506,7.343-.087,5.268-3.4,7.343-11.506,7.343Z" transform="translate(23.223 -19.589)"/>
  <path id="Path_9" data-name="Path 9" class="cls-1" d="M156.119,29.027c-8.106,0-11.506,2.155-11.506,7.343,0,5.268,3.4,7.343,11.506,7.343h13.249V40.041H156.9c-4.445,0-6.8-.639-6.8-3.751,0-3.033,2.092-3.592,6.8-3.671h6.886l-5.579,5.028h5.579l5.579-5.028h0V28.947H156.119Z" transform="translate(14.467 -19.608)"/>
  <path id="Path_10" data-name="Path 10" class="cls-1" d="M230.79,40.014V30.756h10.9v.718h-9.937v3.512h9.937v.8h-9.937v4.23Z" transform="translate(52.851 -19.023)"/>
  <path id="Path_11" data-name="Path 11" class="cls-1" d="M248.365,36.215v-.4c0-2.075-1.22-2.714-4.01-2.714s-4.01.639-4.01,2.714v.4c0,2.075,1.22,2.714,4.01,2.714s4.01-.639,4.01-2.714m-4.358,3.432c-2.964,0-4.533-1.038-4.533-3.272v-.718c0-2.235,1.569-3.272,4.533-3.272h.785c2.964,0,4.533,1.038,4.533,3.272v.718c0,2.235-1.569,3.272-4.533,3.272Z" transform="translate(56.719 -18.497)"/>
  <path id="Path_12" data-name="Path 12" class="cls-1" d="M251.906,39.647c-2.964,0-4.533-1.038-4.533-3.272v-.718c0-2.235,1.569-3.272,4.533-3.272h.523c2.266,0,3.835.639,4.358,2.075h-.959c-.523-1.117-1.918-1.357-3.661-1.357-2.615,0-3.923.639-3.923,2.714v.4c0,2.075,1.22,2.714,3.923,2.714,1.743,0,3.138-.239,3.661-1.357h.959c-.436,1.437-2.092,2.075-4.358,2.075Z" transform="translate(60.238 -18.497)"/>
  <path id="Path_13" data-name="Path 13" class="cls-1" d="M255.965,32.464v4.23c0,1.756,1.569,2.155,3.051,2.155,2.092,0,3.574-.639,3.574-2.554V32.384h.872v7.024h-.872V38.051H262.5c-.436.8-1.395,1.516-3.661,1.516-2.092,0-3.748-.639-3.748-2.714v-4.39Z" transform="translate(63.676 -18.497)"/>
  <path id="Path_14" data-name="Path 14" class="cls-1" d="M266.889,39.647c-2.354,0-4.271-.4-4.62-1.836h.959c.349,1.038,2.179,1.2,3.748,1.2,2.441,0,3.661-.319,3.661-1.516v-.08c0-.878-.7-1.038-2.441-1.117l-2.7-.08c-2.179-.08-2.964-.559-2.964-1.676v-.16c0-1.516,1.656-2,4.1-2h.174c2.441,0,4.1.479,4.446,1.836h-.959c-.262-.8-1.395-1.2-3.574-1.2s-3.225.239-3.225,1.357v.08c0,.878.7,1.038,2.441,1.117l2.7.08c2.092.08,2.876.559,2.876,1.676v.16c0,1.756-1.918,2.155-4.533,2.155Z" transform="translate(66.873 -18.497)"/>
  <path id="Path_15" data-name="Path 15" class="cls-1" d="M270.706,35.5h7.671v-.08c0-1.756-1.22-2.474-3.835-2.474-2.441.08-3.748.639-3.835,2.554m4.1,4.15h-.523c-2.964,0-4.533-1.038-4.533-3.272v-.718c0-2.235,1.569-3.272,4.533-3.272h.523c2.964,0,4.533,1.038,4.533,3.272v.479h-8.629v.08c0,2.075,1.22,2.714,3.835,2.714,1.918,0,3.138-.239,3.661-1.357h.959c-.436,1.437-2,2.075-4.358,2.075" transform="translate(70.203 -18.497)"/>
  <path id="Path_16" data-name="Path 16" class="cls-1" d="M286.384,36.981v-.639c0-2.075-1.22-2.714-4.01-2.714s-4.01.639-4.01,2.714v.4c0,2.075,1.22,2.714,4.01,2.714s4.01-.639,4.01-2.474m0,3.033V38.657H286.3c-.523.958-1.743,1.516-3.836,1.516h-.61c-2.877,0-4.445-1.038-4.445-3.272v-.718c0-2.235,1.569-3.272,4.445-3.272h.61c2.179,0,3.312.479,3.836,1.516h.087V30.756h.872v9.258Z" transform="translate(73.615 -19.023)"/>
  <path id="Path_17" data-name="Path 17" class="cls-1" d="M297.9,36.215v-.4c0-2.075-1.22-2.714-4.01-2.714s-4.01.639-4.01,2.714v.4c0,2.075,1.22,2.714,4.01,2.714,2.7,0,4.01-.639,4.01-2.714m-4.445,3.432c-2.964,0-4.533-1.038-4.533-3.272v-.718c0-2.235,1.569-3.272,4.533-3.272h.784c2.964,0,4.533,1.038,4.533,3.272v.718c0,2.235-1.569,3.272-4.533,3.272Z" transform="translate(78.745 -18.497)"/>
  <path id="Path_18" data-name="Path 18" class="cls-1" d="M304.622,39.488v-4.23c0-1.756-1.569-2.155-3.051-2.155-2.092,0-3.574.639-3.574,2.554v3.911h-.872V32.544H298V33.9h.087c.436-.8,1.395-1.516,3.661-1.516,2.092,0,3.748.639,3.748,2.714v4.39Z" transform="translate(82.398 -18.497)"/>
  <path id="Path_19" data-name="Path 19" class="cls-1" d="M313.52,40.193c-3.835,0-5.492-.8-5.84-2.793h.959c.349,1.516,1.656,2.075,5.23,2.075s4.881-.559,4.881-2V37.16c0-1.038-.872-1.516-2.615-1.516h-5.491v-.718h5.666c1.482,0,2.179-.4,2.179-1.437V33.17c0-1.277-1.22-1.756-4.707-1.756-2.964,0-4.184.559-4.62,2.075H308.2c.523-2,2-2.793,5.4-2.793h.349c4.01,0,5.579.639,5.579,2.394v.239a1.7,1.7,0,0,1-1.482,1.836v.08c1.22.239,1.743.8,1.743,1.916V37.4c0,2-1.569,2.793-5.666,2.793Z" transform="translate(87.099 -19.043)"/>
  <path id="Path_20" data-name="Path 20" class="cls-1" d="M318.649,39.3h5.579c4.358,0,5.317-1.2,5.317-3.671v-.479c0-2.474-.959-3.671-5.317-3.671h-5.579Zm6.1.718h-7.06V30.756h7.06c4.184,0,5.753,1.357,5.753,4.071v1.038c0,2.794-1.569,4.15-5.753,4.15" transform="translate(91.558 -19.023)"/>
  <g id="Group_1" data-name="Group 1" transform="translate(257.578 0)">
    <path id="Path_21" data-name="Path 21" class="cls-1" d="M212.758,21.891V59.882h.959V21.891" transform="translate(-212.758 -21.891)"/>
  </g>
</svg>
